# xmcd
#
# Track frame offsets: 
#        150
#        16249
#        37803
#        59025
#        79548
#        101217
#        118626
#        138717
#        153884
#        168907
#        187851
#
# Disc length: 2736 seconds
#
# Revision: 0
# Processed by: cddbd v1.5.2PL0 Copyright (c) Steve Scherf et al.
# Submitted via: ExactAudioCopy v1.0b1
#
DISCID=850aae0b
DTITLE=Paul Orta - Objective Lune - Destination the Moon
DYEAR=2001
DGENRE=Blues
TTITLE0=Don't worry
TTITLE1=Tear Drops
TTITLE2=Hoochie Coochie Girl
TTITLE3=Moon is rising
TTITLE4=Help me
TTITLE5=She's my Baby
TTITLE6=Nine below zero
TTITLE7=Robbing little woman
TTITLE8=Fine sweet thing
TTITLE9=Bye bye Baby
TTITLE10=Objective Lune
EXTD=
EXTT0=
EXTT1=
EXTT2=
EXTT3=
EXTT4=
EXTT5=
EXTT6=
EXTT7=
EXTT8=
EXTT9=
EXTT10=
PLAYORDER=
